<?xml version="1.0" encoding="UTF-8" standalone="no"?>
<svg
   width="128"
   height="128"
   viewBox="0 0 128 128"
   fill="none"
   version="1.1"
   id="svg17"
   sodipodi:docname="icon-b.svg"
   inkscape:version="1.4.3 (0d15f75042, 2025-12-25)"
   inkscape:export-filename="icon-b.png"
   inkscape:export-xdpi="96"
   inkscape:export-ydpi="96"
   xmlns:inkscape="http://www.inkscape.org/namespaces/inkscape"
   xmlns:sodipodi="http://sodipodi.sourceforge.net/DTD/sodipodi-0.dtd"
   xmlns="http://www.w3.org/2000/svg"
   xmlns:svg="http://www.w3.org/2000/svg">
  <defs
     id="defs17" />
  <sodipodi:namedview
     id="namedview17"
     pagecolor="#ffffff"
     bordercolor="#000000"
     borderopacity="0.25"
     inkscape:showpageshadow="2"
     inkscape:pageopacity="0.0"
     inkscape:pagecheckerboard="0"
     inkscape:deskcolor="#d1d1d1"
     inkscape:zoom="4.7515077"
     inkscape:cx="96.285228"
     inkscape:cy="75.028817"
     inkscape:window-width="2304"
     inkscape:window-height="1368"
     inkscape:window-x="0"
     inkscape:window-y="0"
     inkscape:window-maximized="1"
     inkscape:current-layer="svg17" />
  <rect
     x="6.3162827"
     y="6.3162827"
     width="101.06052"
     height="101.06052"
     rx="19.738384"
     fill="#222222"
     stroke="#222222"
     stroke-width="12.6326"
     id="rect1" />
  <rect
     x="21.900368"
     y="21.110834"
     width="69.479111"
     height="11.84303"
     rx="5.921515"
     fill="#8eef97"
     id="rect2"
     style="stroke-width:0.789535" />
  <rect
     x="21.900368"
     y="51.113174"
     width="69.479111"
     height="11.84303"
     rx="5.921515"
     fill="#8eef97"
     id="rect3"
     style="stroke-width:0.789535" />
  <rect
     x="21.900368"
     y="36.112003"
     width="69.479111"
     height="11.84303"
     rx="5.921515"
     fill="#ef8f8f"
     id="rect4"
     style="stroke-width:0.789535" />
  <path
     d="m 30.980025,71.352125 c 0.526304,0.303893 0.526304,1.063583 0,1.367476 l -11.250879,6.49606 c -0.526383,0.303181 -1.184303,-0.07658 -1.184303,-0.684133 V 65.540119 c 0,-0.607784 0.65792,-0.98763 1.184303,-0.683738 z"
     fill="#ffffff"
     id="path4"
     style="stroke-width:0.789535" />
  <path
     d="m 87.613948,4.7372121 c 11.558798,0 20.929002,9.3701269 20.929002,20.9288449 v 42.466027 l -1.8933,-0.952179 c -2.37572,-1.195751 -4.82722,-1.959548 -7.168196,-2.490432 V 25.666057 c 0,-6.554091 -5.313573,-11.867664 -11.867506,-11.867664 H 25.666057 c -6.554091,0 -11.867664,5.313573 -11.867664,11.867664 v 61.947891 c 0,6.553933 5.313573,11.867506 11.867664,11.867506 h 42.503057 l 0.0069,1.579066 c 0.0017,0.37819 0.0051,0.77217 0.0077,1.08719 0.0013,0.15949 0.0021,0.2945 0.0031,0.40425 3.95e-4,0.0537 0.0013,0.0979 0.0015,0.13343 l 7.9e-4,1.40616 h 0.07019 c 0.168565,1.64934 0.644892,3.13051 1.348526,4.4514 H 25.666057 c -11.558718,0 -20.9288449,-9.370204 -20.9288449,-20.929002 V 25.666057 c 0,-11.558718 9.3701269,-20.9288449 20.9288449,-20.9288449 z M 97.301547,105.83011 c 0.02842,0.0963 0.07343,0.18554 0.131852,0.26291 -0.05842,-0.0774 -0.103429,-0.1658 -0.131852,-0.26291 z m -0.02448,-0.11054 c 0.0047,0.0324 0.01184,0.0632 0.01974,0.094 -0.0079,-0.0308 -0.015,-0.0616 -0.01974,-0.094 z m 7.285833,-9.118341 c -0.0142,7.9e-4 -0.0284,0.0016 -0.0426,0.0016 0.0142,0 0.0284,-7.89e-4 0.0426,-0.0016 z m 0.21949,-0.01816 c -0.0174,0.0016 -0.034,0.0032 -0.0513,0.0047 0.0174,-0.0016 0.034,-0.0032 0.0513,-0.0047 z m 0.24792,-0.03395 c -0.0221,0.0039 -0.0442,0.0079 -0.0671,0.01105 0.0229,-0.0032 0.045,-0.0071 0.0671,-0.01105 z m 0.22975,-0.04264 c -0.0205,0.0047 -0.041,0.0095 -0.0616,0.01342 0.0205,-0.0039 0.0411,-0.0087 0.0616,-0.01342 z m 0.22581,-0.05448 c -0.0316,0.0087 -0.0632,0.01658 -0.0955,0.02448 0.0324,-0.0079 0.064,-0.01579 0.0955,-0.02448 z m 0.17449,-0.04895 c -0.0182,0.0055 -0.0363,0.0095 -0.0545,0.015 0.0205,-0.0063 0.0411,-0.01105 0.0616,-0.01737 z m 0.2937,-0.104219 c -0.0403,0.01579 -0.0813,0.03158 -0.12237,0.04579 0.041,-0.01421 0.0821,-0.03 0.12237,-0.04579 z m 0.16028,-0.06553 c -0.0308,0.01342 -0.0632,0.02605 -0.0947,0.03948 0.0316,-0.01342 0.064,-0.02605 0.0947,-0.03948 z m 0.75716,-0.416086 c -0.20843,0.142117 -0.4295,0.266074 -0.66163,0.372661 0.23213,-0.106587 0.45399,-0.231334 0.66242,-0.37345 z m 1.38169,-6.113372 c -0.10185,-0.174487 -0.21554,-0.341079 -0.3395,-0.500565 0.12396,0.159486 0.23686,0.326078 0.3395,0.500565 z m -0.75874,-0.966391 c 0.14211,0.138169 0.27555,0.285022 0.39871,0.440561 -0.12316,-0.155539 -0.2566,-0.302392 -0.39871,-0.440561 z m -0.23607,-0.216333 c -0.079,-0.06711 -0.16028,-0.131063 -0.24397,-0.192646 0.0837,0.06158 0.16501,0.125536 0.24397,0.192646 z m -0.49899,-0.367134 c 0.0766,0.04895 0.1508,0.100271 0.22423,0.15317 -0.0734,-0.05369 -0.14843,-0.104219 -0.22423,-0.15317 z m -0.53451,-0.292917 c 0.17685,0.08211 0.3466,0.175277 0.51082,0.277916 -0.16422,-0.103429 -0.33397,-0.195805 -0.51082,-0.277916 z m -0.32056,-0.135011 c -0.0939,-0.03474 -0.18948,-0.06711 -0.2866,-0.09632 0.0971,0.02921 0.19265,0.06158 0.2866,0.09632 z m -0.57004,-0.17054 c 0.0718,0.01658 0.14369,0.03474 0.21475,0.05527 -0.0711,-0.02053 -0.1429,-0.03869 -0.21475,-0.05527 z m -0.35766,-0.06869 c 0.0924,0.01342 0.18396,0.03079 0.27476,0.04974 -0.0908,-0.01895 -0.18238,-0.03632 -0.27476,-0.04974 z m -0.23844,-0.02921 c 0.0118,0.0016 0.0245,0.0024 0.0363,0.0032 -0.0118,-7.89e-4 -0.0245,-0.0016 -0.0363,-0.0032 z m -0.22896,-0.01579 c 0.0189,7.9e-4 0.0379,0.0016 0.0568,0.0032 -0.0189,-0.0016 -0.0379,-0.0024 -0.0568,-0.0032 z m 3.01365,-8.554615 c 0.09,0.07185 0.18002,0.145274 0.26923,0.218701 -0.0892,-0.07343 -0.17922,-0.146853 -0.26923,-0.218701 z m 0.73506,10.82453 c 0.0529,0.09001 0.10264,0.182382 0.15001,0.277126 -0.0466,-0.09474 -0.0971,-0.187119 -0.15001,-0.277126 z m -0.99955,-1.19062 c 0.0718,0.06158 0.14211,0.124747 0.21001,0.190278 -0.0679,-0.06553 -0.13817,-0.128694 -0.21001,-0.190278 z m -1.35406,-0.795062 c 0.0868,0.03237 0.17133,0.06869 0.25581,0.105798 -0.0845,-0.03711 -0.16896,-0.07343 -0.25581,-0.105798 z"
     fill="#8eef97"
     id="path5"
     style="stroke-width:0.789535" />
  <path
     d="m 82.771728,66.114348 c -0.807695,0.311708 -1.61381,0.664078 -2.412031,1.065557 l -2.683788,1.350816 0.07793,3.003155 c 0.02076,0.801537 0.0555,1.598494 0.107929,2.397188 -0.48359,-0.267179 -0.973339,-0.527489 -1.469562,-0.777219 L 73.214011,71.55472 70.79219,74.160818 c -1.077084,1.159196 -2.149352,2.418426 -3.150404,3.79656 H 40.454449 c -3.270413,0 -5.921515,-2.651181 -5.921515,-5.921515 0,-3.270413 2.651102,-5.921515 5.921515,-5.921515 z"
     fill="#ffffff"
     id="path6"
     style="stroke-width:0.789535" />
  <path
     d="m 64.509065,82.990429 1.557437,2.445981 c 0.657209,1.031133 1.382871,2.122271 2.122666,3.139982 v 4.381921 H 27.821883 c -3.270413,0 -5.921515,-2.65126 -5.921515,-5.921515 0,-3.270256 2.651102,-5.921515 5.921515,-5.921515 h 37.788978 z m 21.684509,9.775237 c 0,0.0024 -7.9e-4,0.0039 -7.9e-4,0.0063 0,-0.0047 7.9e-4,-0.0095 7.9e-4,-0.01421 z m 1.101402,-0.534515 c -7.9e-4,0.02132 -0.0016,0.04264 -0.0024,0.06395 7.9e-4,-0.02132 0.0016,-0.04264 0.0024,-0.06395 z m -9.071603,0.727162 c -0.01421,-0.0679 -0.02669,-0.137379 -0.03782,-0.206069 0.01121,0.06869 0.02361,0.138169 0.03782,0.206069 z m 9.062128,-0.571624 c -0.0079,0.09711 -0.01895,0.192647 -0.03237,0.288181 0.01342,-0.09553 0.02448,-0.191068 0.03237,-0.288181 z"
     fill="#ffffff"
     id="path7"
     style="stroke-width:0.789535" />
  <mask
     id="path-9-outside-1_239_679"
     maskUnits="userSpaceOnUse"
     x="74.1836"
     y="73.5"
     width="88"
     height="82"
     fill="#000000">
    <rect
       fill="#ffffff"
       x="74.183601"
       y="73.5"
       width="88"
       height="82"
       id="rect7" />
    <path
       d="m 124.988,83.5 c 3.099,0.6887 6.163,1.6478 9.036,3.0938 -0.066,2.5369 -0.23,4.9683 -0.561,7.4374 1.114,0.7149 2.288,1.3283 3.33,2.1651 1.06,0.8146 2.14,1.5942 3.099,2.5469 1.915,-1.267 3.943,-2.4579 6.031,-3.5088 2.251,2.4228 4.358,5.0376 6.077,7.9636 -1.125,1.812 -2.593,3.965 -4.144,5.917 v 16.526 l -0.004,10e-4 v 1.426 c 0,0.004 0,0.006 0.001,0.006 l 0.015,2.376 h 0.003 c -0.005,1.065 -0.019,2.226 -0.019,2.462 -0.001,10.456 -13.261,15.482 -29.741,15.54 h -0.04 c -16.48,-0.058 -29.7437,-5.084 -29.7439,-15.54 0,-0.232 -0.0139,-1.398 -0.0185,-2.462 h 0.0049 l 0.0136,-2.375 v -17.96 c -1.3424,-1.663 -2.7921,-3.795 -4.1435,-5.917 1.7196,-2.926 3.8249,-5.5408 6.0762,-7.9636 2.0885,1.0509 4.1158,2.2418 6.0312,3.5088 0.9588,-0.9528 2.0407,-1.7323 3.0996,-2.5469 1.0424,-0.8367 2.2144,-1.4503 3.3304,-2.1651 -0.333,-2.4691 -0.496,-4.9005 -0.562,-7.4374 2.873,-1.4461 5.938,-2.4051 9.035,-3.0938 1.24,2.0798 2.371,4.3324 3.356,6.5342 1.169,-0.1953 2.342,-0.2682 3.519,-0.2822 v -10e-4 c 0.008,0 0.015,10e-4 0.023,10e-4 0.007,0 0.014,-10e-4 0.022,-10e-4 v 10e-4 c 1.176,0.0139 2.35,0.0869 3.519,0.2822 0.985,-2.2018 2.118,-4.4544 3.355,-6.5342 z"
       id="path8" />
  </mask>
  <path
     d="m 124.988,83.5 1.736,-7.8095 -5.651,-1.2556 -2.96,4.9744 z m 9.036,3.0938 7.998,0.208 0.132,-5.0729 -4.533,-2.2812 z m -0.561,7.4374 -7.929,-1.0647 -0.678,5.0466 4.285,2.7509 z m 3.33,2.1651 -5.01,6.2367 0.068,0.055 0.068,0.052 z m 3.099,2.5469 -5.64,5.6738 4.62,4.592 5.433,-3.593 z m 6.031,-3.5088 5.86,-5.4456 -4.09,-4.4019 -5.367,2.7017 z m 6.077,7.9636 6.796,4.221 2.55,-4.106 -2.448,-4.1668 z m -4.144,5.917 -6.264,-4.976 -1.736,2.185 v 2.791 z m 0,16.526 1.569,7.844 6.431,-1.286 v -6.558 z m -0.004,10e-4 -1.569,-7.845 -6.431,1.286 v 6.559 z m 0,1.426 h -8 v 0.66 l 0.108,0.651 z m 0.001,0.006 7.999,-0.052 -0.004,-0.623 -0.1,-0.615 z m 0.015,2.376 -8,0.053 0.053,7.947 h 7.947 z m 0.003,0 8,0.037 0.037,-8.037 h -8.037 z m -0.019,2.462 h 8 v 0 z m -29.741,15.54 v 8 h 0.014 0.014 z m -0.04,0 -0.028,8 h 0.014 0.014 z m -29.7439,-15.54 h -8 v 0 z m -0.0185,-2.462 v -8 h -8.0344 l 0.0345,8.035 z m 0.0049,0 v 8 h 7.9541 l 0.0457,-7.954 z m 0.0136,-2.375 7.9999,0.046 1e-4,-0.023 v -0.023 z m 0,-17.96 h 8 v -2.826 l -1.7754,-2.199 z m -4.1435,-5.917 -6.8973,-4.0529 -2.4808,4.2219 2.6309,4.13 z m 6.0762,-7.9636 3.596,-7.1462 -5.3669,-2.7007 -4.0897,4.4013 z m 6.0312,3.5088 -4.4133,6.6728 5.4322,3.593 4.6201,-4.591 z m 3.0996,-2.5469 4.8784,6.3407 0.066,-0.051 0.064,-0.052 z m 3.3304,-2.1651 4.315,6.7358 4.294,-2.7501 -0.681,-5.0533 z m -0.562,-7.4374 -3.5965,-7.146 -4.532,2.2811 0.1314,5.072 z m 9.035,-3.0938 6.873,-4.0951 -2.962,-4.9697 -5.647,1.2554 z m 3.356,6.5342 -7.303,3.2669 2.524,5.6421 6.097,-1.0183 z m 3.519,-0.2822 0.095,7.9994 7.905,-0.094 V 89.752 Z m 0,-10e-4 v -8 h -8 v 8 z m 0.023,10e-4 v 8 h 0.003 z m 0.022,-10e-4 h 8 v -8.0485 l -8.048,0.0486 z m 0,10e-4 h -8 v 7.9053 l 7.905,0.0941 z m 3.519,0.2822 -1.319,7.8906 6.096,1.0184 2.525,-5.6405 z m 3.355,-6.5342 -1.735,7.8095 c 2.671,0.5936 5.063,1.3674 7.175,2.4303 l 3.596,-7.146 3.597,-7.1461 c -3.634,-1.829 -7.37,-2.9735 -10.897,-3.7572 z m 9.036,3.0938 -7.997,-0.2081 c -0.06,2.3224 -0.208,4.4593 -0.493,6.5808 l 7.929,1.0647 7.929,1.0648 c 0.378,-2.8167 0.558,-5.5427 0.63,-8.2942 z m -0.561,7.4374 -4.322,6.7328 c 1.941,1.245 2.016,1.167 2.642,1.669 l 5.01,-6.2367 5.01,-6.2372 c -1.458,-1.1709 -3.732,-2.476 -4.019,-2.6602 z m 3.33,2.1651 -4.874,6.3437 c 1.327,1.02 1.839,1.386 2.333,1.877 l 5.64,-5.6738 5.639,-5.674 c -1.423,-1.4143 -3.07,-2.6069 -3.864,-3.217 z m 3.099,2.5469 4.413,6.6728 c 1.676,-1.109 3.432,-2.139 5.215,-3.036 l -3.597,-7.1456 -3.597,-7.1458 c -2.393,1.2047 -4.693,2.5571 -6.848,3.9821 z m 6.031,-3.5088 -5.861,5.4456 c 2.003,2.155 3.708,4.302 5.04,6.57 l 6.898,-4.052 6.898,-4.0518 c -2.105,-3.584 -4.615,-6.6672 -7.115,-9.3574 z m 6.077,7.9636 -6.796,-4.2201 c -0.997,1.6061 -2.29,3.4981 -3.612,5.1611 l 6.264,4.976 6.265,4.976 c 1.779,-2.24 3.423,-4.655 4.675,-6.672 z m -4.144,5.917 h -8 v 16.526 h 8 8 v -16.526 z m 0,16.526 -1.568,-7.845 -0.005,10e-4 1.569,7.845 1.568,7.844 0.005,-10e-4 z m -0.004,10e-4 h -8 v 1.426 h 8 8 v -1.426 z m 0,1.426 -7.892,1.311 c 0.001,0.005 0.001,0.01 0.002,0.012 0,0.001 0,0.002 0,0.001 0,0 0,0 0,0 0,0 0,-0.001 0,-0.001 -10e-4,-0.001 -10e-4,-0.003 -10e-4,-0.007 -0.001,-10e-4 -0.001,-0.004 -0.002,-0.007 0,-0.002 -0.001,-0.007 -0.002,-0.012 l 7.896,-1.291 7.895,-1.29 c -10e-4,-0.006 -0.002,-0.01 -0.002,-0.013 -0.001,-0.003 -0.001,-0.006 -0.002,-0.008 0,-0.003 -0.001,-0.006 -0.001,-0.007 0,-0.001 0,-0.002 0,-0.002 0,0 0,-0.001 0,-0.001 0,0 0,0 0,0 0,0.001 0,0.003 0.001,0.005 z m 0.001,0.006 -8,0.053 0.015,2.376 8,-0.053 8,-0.052 -0.016,-2.376 z m 0.015,2.376 v 8 h 0.003 v -8 -8 h -0.003 z m 0.003,0 -8,-0.036 c -0.002,0.512 -0.007,1.052 -0.011,1.502 -0.004,0.409 -0.008,0.828 -0.008,0.996 h 8 8 c 0,0.002 0,-0.017 0,-0.072 0,-0.049 0.001,-0.112 0.002,-0.189 10e-4,-0.159 0.003,-0.351 0.005,-0.584 0.004,-0.455 0.009,-1.027 0.012,-1.58 z m -0.019,2.462 h -8 c 0,1.037 -0.381,2.653 -4.142,4.453 -3.897,1.863 -10.015,3.061 -17.627,3.087 l 0.028,8 0.028,8 c 8.868,-0.031 17.621,-1.376 24.474,-4.653 6.988,-3.343 13.238,-9.468 13.239,-18.887 z m -29.741,15.54 v -8 h -0.04 v 8 8 h 0.04 z m -0.04,0 0.028,-8 c -7.612,-0.026 -13.73,-1.224 -17.628,-3.088 -3.764,-1.799 -4.1438,-3.416 -4.1439,-4.452 h -8 -8 c 2e-4,9.42 6.2525,15.545 13.241,18.887 6.8539,3.277 15.6069,4.622 24.4749,4.653 z m -29.7439,-15.54 h 8 c 0,-0.164 -0.0042,-0.58 -0.0078,-0.991 -0.0041,-0.451 -0.0086,-0.993 -0.0108,-1.505 l -7.9999,0.034 -7.9999,0.035 c 0.0023,0.551 0.0071,1.124 0.0112,1.58 0.0021,0.233 0.0039,0.425 0.0053,0.584 7e-4,0.078 0.0012,0.141 0.0015,0.19 4e-4,0.054 4e-4,0.074 4e-4,0.073 z m -0.0185,-2.462 v 8 h 0.0049 v -8 -8 h -0.0049 z m 0.0049,0 7.9998,0.046 0.0137,-2.375 -7.9999,-0.046 -7.9998,-0.046 -0.0137,2.375 z m 0.0136,-2.375 h 8 v -17.96 h -8 -8 v 17.96 z m 0,-17.96 6.2246,-5.025 c -1.0629,-1.317 -2.3253,-3.156 -3.6209,-5.1901 l -6.7472,4.2981 -6.7472,4.299 c 1.4072,2.208 3.0442,4.635 4.6662,6.644 z m -4.1435,-5.917 6.8973,4.053 c 1.3343,-2.27 3.0383,-4.417 5.0394,-6.571 l -5.8605,-5.4456 -5.8606,-5.4456 c -2.5014,2.692 -5.0081,5.7745 -7.1129,9.3563 z m 6.0762,-7.9636 -3.5961,7.1466 c 1.782,0.896 3.5369,1.925 5.214,3.035 l 4.4133,-6.6728 4.413,-6.6725 C 98.5505,90.646 96.2509,89.2934 93.8558,88.0882 Z m 6.0312,3.5088 5.639,5.6748 c 0.495,-0.492 1.002,-0.852 2.339,-1.881 l -4.8784,-6.3407 -4.878,-6.3407 c -0.7807,0.6005 -2.4383,1.7997 -3.8604,3.2127 z m 3.0996,-2.5469 5.0084,6.2377 c 0.62,-0.497 0.715,-0.435 2.637,-1.667 l -4.315,-6.7358 -4.3158,-6.7361 c -0.3093,0.1981 -2.5591,1.4875 -4.0234,2.6632 z m 3.3304,-2.1651 7.928,-1.0676 c -0.285,-2.1185 -0.432,-4.2536 -0.493,-6.577 l -7.997,0.2072 -7.9971,0.2071 c 0.0712,2.7506 0.2507,5.4783 0.6304,8.298 z m -0.562,-7.4374 3.597,7.1459 c 2.111,-1.0628 4.504,-1.8366 7.174,-2.4303 L 111.194,83.5 109.458,75.6906 c -3.524,0.7836 -7.261,1.928 -10.8955,3.7572 z m 9.035,-3.0938 -6.872,4.0951 c 1.044,1.7526 2.035,3.717 2.925,5.706 l 7.303,-3.2669 7.302,-3.2669 c -1.08,-2.4145 -2.351,-4.9554 -3.785,-7.3624 z m 3.356,6.5342 1.318,7.8907 c 0.638,-0.1066 1.376,-0.1626 2.296,-0.1735 l -0.095,-7.9994 -0.095,-7.9995 c -1.435,0.0171 -3.042,0.107 -4.742,0.391 z m 3.519,-0.2822 h 8 v -10e-4 h -8 -8 v 10e-4 z m 0,-10e-4 v 8 c -0.087,0 -0.164,-0.0015 -0.227,-0.0033 -0.063,-0.0018 -0.116,-0.0041 -0.157,-0.0061 -0.02,-0.001 -0.038,-0.0019 -0.053,-0.0028 -0.015,-8e-4 -0.028,-0.0015 -0.038,-0.0021 -0.009,-6e-4 -0.017,-0.0011 -0.021,-0.0014 -0.004,-2e-4 -0.008,-5e-4 -0.007,-4e-4 0,0 0.002,1e-4 0.003,2e-4 10e-4,1e-4 0.004,2e-4 0.006,4e-4 0.006,3e-4 0.014,9e-4 0.025,0.0015 0.011,7e-4 0.024,0.0015 0.04,0.0024 0.016,9e-4 0.035,0.0019 0.057,0.0029 0.042,0.0021 0.097,0.0044 0.162,0.0063 0.065,0.0019 0.143,0.0034 0.233,0.0034 v -8 -8 c 0.087,0 0.164,0.0014 0.227,0.0032 0.063,0.0018 0.117,0.0041 0.157,0.0061 0.02,10e-4 0.038,0.0019 0.053,0.0028 0.015,8e-4 0.028,0.0016 0.038,0.0022 0.009,5e-4 0.017,0.001 0.022,0.0013 0.004,3e-4 0.007,5e-4 0.006,4e-4 0,0 -0.001,-1e-4 -0.003,-2e-4 -0.001,-10e-5 -0.004,-2e-4 -0.006,-4e-4 -0.006,-3e-4 -0.014,-9e-4 -0.025,-0.0015 -0.011,-6e-4 -0.024,-0.0015 -0.04,-0.0023 -0.016,-9e-4 -0.035,-0.0019 -0.056,-0.003 -0.043,-0.002 -0.098,-0.0044 -0.163,-0.0063 -0.065,-0.0018 -0.143,-0.0033 -0.233,-0.0033 z m 0.023,10e-4 0.003,8 c 0.09,-10e-5 0.168,-0.0016 0.233,-0.0035 0.064,-0.0019 0.119,-0.0042 0.16,-0.0062 0.04,-0.002 0.073,-0.0039 0.092,-0.0051 0.01,-6e-4 0.018,-0.0011 0.022,-0.0013 0.004,-3e-4 0.008,-6e-4 0.007,-5e-4 0,0 0,0 0,0 -10e-4,1e-4 -10e-4,1e-4 -0.002,1e-4 -0.001,1e-4 -0.003,3e-4 -0.005,4e-4 -0.005,3e-4 -0.013,8e-4 -0.023,0.0014 -0.019,0.0011 -0.049,0.0028 -0.086,0.0046 -0.074,0.0036 -0.189,0.0081 -0.33,0.0089 l -0.049,-7.9998 -0.048,-7.9999 c -0.073,5e-4 -0.139,0.0019 -0.196,0.0036 -0.057,0.0017 -0.107,0.0038 -0.146,0.0057 -0.039,0.0019 -0.071,0.0037 -0.092,0.0049 -0.011,7e-4 -0.02,0.0012 -0.026,0.0016 -0.005,3e-4 -0.01,6e-4 -0.01,7e-4 -0.002,1e-4 10e-4,-1e-4 0.004,-3e-4 0.004,-2e-4 0.011,-7e-4 0.019,-0.0012 0.009,-5e-4 0.021,-0.0013 0.036,-0.0021 0.014,-8e-4 0.032,-0.0017 0.051,-0.0027 0.04,-0.0019 0.093,-0.0042 0.155,-0.006 0.063,-0.0018 0.14,-0.0033 0.227,-0.0033 z m 0.022,-10e-4 h -8 v 10e-4 h 8 8 v -10e-4 z m 0,10e-4 -0.095,7.9994 c 0.919,0.0109 1.658,0.067 2.295,0.1734 l 1.319,-7.8906 1.318,-7.8906 c -1.7,-0.2841 -3.309,-0.374 -4.742,-0.3911 z m 3.519,0.2822 7.302,3.2685 c 0.889,-1.9877 1.883,-3.955 2.928,-5.712 L 124.988,83.5 118.113,79.4093 c -1.429,2.4025 -2.701,4.9405 -3.782,7.3563 z"
     fill="#222222"
     mask="url(#path-9-outside-1_239_679)"
     id="path9"
     transform="scale(0.78953535)" />
  <path
     d="m 116.73438,100.3302 c 0,0 -0.0782,-0.479244 -0.12396,-0.474506 l -8.68962,0.838486 c -0.69164,0.0663 -1.22852,0.61821 -1.27668,1.31063 l -0.23923,3.42185 -6.722894,0.48003 -0.457141,-3.10129 c -0.10185,-0.69006 -0.704266,-1.20957 -1.401425,-1.20957 h -9.171243 c -0.69716,0 -1.299575,0.51951 -1.401425,1.20957 l -0.457931,3.10129 -6.722893,-0.48003 -0.23844,-3.42185 c -0.04816,-0.69242 -0.585835,-1.24431 -1.276915,-1.31063 l -8.694285,-0.838486 c -0.04484,-0.0047 -0.07777,0.475296 -0.122693,0.475296 l -0.01176,1.87989 7.363207,1.18746 0.241124,3.45264 c 0.04871,0.69874 0.61268,1.26404 1.31205,1.31378 l 9.259118,0.66084 c 0.03474,0.002 0.06948,0.004 0.104219,0.004 0.69558,0 1.297206,-0.5203 1.399056,-1.21036 l 0.470563,-3.19051 h 6.725262 l 0.470564,3.19051 c 0.10185,0.69006 0.704265,1.21036 1.400635,1.21036 0.03395,0 0.06869,-0.002 0.10185,-0.004 l 9.259667,-0.66084 c 0.69953,-0.0497 1.26326,-0.61504 1.31221,-1.31378 l 0.2408,-3.45264 7.36005,-1.1922 z"
     fill="#ffffff"
     id="path10"
     style="stroke-width:0.789535" />
  <path
     d="m 69.737289,86.15015 v 11.411154 1.449587 1.319309 c 0.02598,0 0.05187,7.9e-4 0.07761,0.003 l 8.693258,0.83849 c 0.455641,0.0442 0.812511,0.41056 0.844092,0.86691 l 0.267653,3.83714 7.583487,0.54162 0.522672,-3.54185 c 0.06711,-0.45951 0.461089,-0.7998 0.926125,-0.7998 h 9.171243 c 0.464246,0 0.858225,0.34029 0.926125,0.7998 l 0.521883,3.54185 7.583483,-0.54162 0.26766,-3.83714 c 0.0324,-0.45635 0.38924,-0.8227 0.84401,-0.86691 l 8.69042,-0.83849 c 0.0253,-0.002 0.0513,-0.003 0.0774,-0.003 v -1.1314 l 0.003,-0.0016 V 86.15015 c 1.22457,-1.541173 2.38361,-3.241043 3.27183,-4.670892 -1.35721,-2.31097 -3.02076,-4.375447 -4.798,-6.288412 -1.64855,0.829802 -3.24973,1.769823 -4.76169,2.770164 -0.75717,-0.752269 -1.60986,-1.367554 -2.44677,-2.01071 -0.8227,-0.660762 -1.74961,-1.145142 -2.62915,-1.709581 0.26212,-1.949441 0.39161,-3.868723 0.44372,-5.871695 -2.26913,-1.141826 -4.68827,-1.898833 -7.135037,-2.442586 -0.977445,1.642076 -1.870409,3.420268 -2.648891,5.158667 -0.922967,-0.154197 -1.849881,-0.211359 -2.777585,-0.222413 v -0.0014 c -0.0071,0 -0.01263,0.0014 -0.01816,0.0014 -0.0063,0 -0.01184,-0.0014 -0.01737,-0.0014 v 0.0014 c -0.930073,0.01105 -1.856988,0.06822 -2.779954,0.222413 -0.777693,-1.738399 -1.670657,-3.516591 -2.648891,-5.158667 -2.445981,0.543753 -4.865117,1.30076 -7.133452,2.442586 0.05132,2.002972 0.180803,3.922254 0.443719,5.871695 -0.881122,0.564439 -1.807247,1.048819 -2.629785,1.709581 -0.836039,0.643156 -1.689842,1.258441 -2.446849,2.01071 -1.512355,-1.000341 -3.113059,-1.940362 -4.762082,-2.770164 -1.77756,1.912965 -3.439532,3.977442 -4.797217,6.288412 1.066978,1.674605 2.211488,3.357894 3.271361,4.670892 z"
     fill="#478cbf"
     id="path11"
     style="stroke-width:0.789535" />
  <path
     d="m 108.93377,102.95936 -0.26923,3.85846 c -0.0324,0.46424 -0.40266,0.83454 -0.8677,0.86849 l -9.25967,0.66005 c -0.02211,0.002 -0.045,0.002 -0.06711,0.002 -0.460299,0 -0.857435,-0.33714 -0.925335,-0.7998 l -0.531358,-3.60107 h -7.555063 l -0.531358,3.60107 c -0.07106,0.48477 -0.504513,0.83375 -0.992446,0.79743 l -9.259907,-0.66005 c -0.464957,-0.034 -0.834855,-0.40425 -0.867305,-0.86849 l -0.269231,-3.85846 -7.816874,-0.75322 c 0.0036,0.84007 0.01445,1.75987 0.01445,1.94384 0,8.25538 10.472476,12.22358 23.484018,12.26938 h 0.01579 0.01658 c 13.011539,-0.0458 23.480779,-4.014 23.480779,-12.26938 0,-0.18712 0.011,-1.10377 0.015,-1.94384 z"
     fill="#478cbf"
     id="path12"
     style="stroke-width:0.789535" />
  <path
     d="m 86.153308,91.906652 c 0,2.894436 -2.34492,5.239356 -5.238567,5.239356 -2.892068,0 -5.238094,-2.34492 -5.238094,-5.239356 0,-2.892858 2.346026,-5.236199 5.238094,-5.236199 2.893647,0 5.238567,2.343341 5.238567,5.236199 z"
     fill="#ffffff"
     id="path13"
     style="stroke-width:0.789535" />
  <path
     d="m 84.89242,92.216939 c 0,1.92015 -1.556174,3.476324 -3.477903,3.476324 -1.92015,0 -3.477193,-1.556174 -3.477193,-3.476324 0,-1.92015 1.557043,-3.477113 3.477193,-3.477113 1.921729,0 3.477903,1.556963 3.477903,3.477113 z"
     fill="#414042"
     id="path14"
     style="stroke-width:0.789535" />
  <path
     d="m 93.237019,97.622098 c -0.931652,0 -1.686448,-0.686106 -1.686448,-1.532488 v -4.823271 c 0,-0.844803 0.754796,-1.532488 1.686448,-1.532488 0.930862,0 1.688026,0.687685 1.688026,1.532488 v 4.823271 c 0,0.846382 -0.757164,1.532488 -1.688026,1.532488 z"
     fill="#ffffff"
     id="path15"
     style="stroke-width:0.789535" />
  <path
     d="m 100.32152,91.906652 c 0,2.894436 2.34571,5.239356 5.23936,5.239356 2.89206,0 5.23777,-2.34492 5.23777,-5.239356 0,-2.892858 -2.34571,-5.236199 -5.23777,-5.236199 -2.89365,0 -5.23936,2.343341 -5.23936,5.236199 z"
     fill="#ffffff"
     id="path16"
     style="stroke-width:0.789535" />
  <path
     d="m 101.58162,92.216939 c 0,1.92015 1.55538,3.476324 3.47553,3.476324 1.92173,0 3.47791,-1.556174 3.47791,-3.476324 0,-1.92015 -1.55618,-3.477113 -3.47791,-3.477113 -1.92015,0 -3.47553,1.556963 -3.47553,3.477113 z"
     fill="#414042"
     id="path17"
     style="stroke-width:0.789535" />
</svg>
